#!OML:ASF E:\id_vita\Project 1\Capture day 1\Session 1\Male1.ASF
:FULLY-SPECIFIED
:DEGREES
1212
root 33.786 16.2655 -1.38613 921.604 93.5895 923.567
lowerback -3.18474 0.926084 -2.45308
upperback 0.490507 1.39167 -1.79431
thorax 2.27625 0.68188 -0.396319
lowerneck -2.20811 7.55869 10.9603
upperneck 2.12812 9.75785 1.16958
head 1.5462 5.01378 -1.22952
rclavicle 1.06101e-014 0
rhumerus -31.5751 -28.9214 -79.1457
rradius 14.7535
rwrist 20.3105
rhand -20.3777 36.5591
rfingers 7.12502
rthumb 5.97522 6.66336
lclavicle 1.06101e-014 0
lhumerus -28.3495 25.025 73.6132
lradius 10.9922
lwrist -20.2766
lhand -10.6984 45.5077
lfingers 7.12502
lthumb 15.311 74.9209
rfemur 4.95745 0.940122 13.6535
rtibia 41.2753
rfoot -2.88064 10.733
rtoes 17.8313
lfemur -13.6708 4.13124 -21.331
ltibia 28.668
lfoot -17.8875 -0.272639
ltoes 12.9166
1213
root 33.847 16.2681 -1.41097 927.952 94.0466 929.833
lowerback -3.07848 0.836762 -3.15029
upperback 0.421044 1.29925 -1.89818
thorax 2.13386 0.631281 -0.120302
lowerneck -1.80404 7.37194 11.1109
upperneck 1.65654 9.57756 0.769918
head 1.34582 4.89763 -1.41497
rclavicle -1.05853e-014 0
rhumerus -32.0926 -29.5664 -78.3782
rradius 14.4236
rwrist 21.205
rhand -20.5756 36.4614
rfingers 7.12502
rthumb 5.78406 6.56031
lclavicle -1.05853e-014 0
lhumerus -27.1076 22.0392 75.3977
lradius 11.6596
lwrist -17.5047
lhand -11.2956 45.49
lfingers 7.12502
lthumb 14.7358 74.9463
rfemur 3.91643 0.530901 12.5777
rtibia 42.9345
rfoot -2.53774 11.5781
rtoes 14.372
lfemur -13.4697 4.43917 -22.0535
ltibia 28.5354
lfoot -17.9978 -0.367508
ltoes 13.032
1214
root 33.918 16.2709 -1.43447 924.108 94.3514 926.226
lowerback -2.74191 0.767755 -3.1799
upperback 0.505956 1.1919 -1.81194
thorax 2.03181 0.576838 -0.024874
lowerneck -2.10712 7.34517 10.8789
upperneck 1.74973 9.50286 0.898929
head 1.40416 4.86436 -1.32427
rclavicle 9.93923e-016 8.74653e-015
rhumerus -32.5292 -30.2241 -77.6524
rradius 14.2314
rwrist 22.478
rhand -20.4094 36.2439
rfingers 7.12502
rthumb 5.94455 6.34728
lclavicle 9.93923e-016 8.74653e-015
lhumerus -25.9305 19.9282 76.6458
lradius 12.2331
lwrist -15.6155
lhand -11.4793 45.5276
lfingers 7.12502
lthumb 14.5587 74.9967
rfemur 3.2178 0.393652 12.3602
rtibia 44.5887
rfoot -1.81863 12.1733
rtoes 5.7143
lfemur -12.7939 4.73485 -21.9832
ltibia 28.3285
lfoot -18.2125 -0.218032
ltoes 13.4516
1215
root 33.9967 16.2719 -1.46038 925.028 94.7448 927.405
lowerback -2.60641 0.717743 -3.47399
upperback 0.550117 1.13247 -1.84837
thorax 1.99793 0.544681 0.0977466
lowerneck -1.79876 7.23895 10.6716
upperneck 1.63647 9.40908 0.982629
head 1.29239 4.81099 -1.28107
rclavicle 1.56543e-014 8.74653e-015
rhumerus -33.2223 -30.6827 -76.8663
rradius 14.1475
rwrist 23.3713
rhand -20.2165 36.0904
rfingers 7.12502
rthumb 6.13076 6.1991
lclavicle 1.56543e-014 8.74653e-015
lhumerus -25.0608 18.1733 77.5607
lradius 12.7997
lwrist -14.2668
lhand -11.8047 45.2639
lfingers 7.12502
lthumb 14.2452 74.7554
rfemur 2.55957 0.059524 11.6405
rtibia 46.2718
rfoot -0.614683 12.8603
rtoes 16.3881
lfemur -12.0159 5.09836 -22.3288
ltibia 28.0383
lfoot -18.5899 -0.193417
ltoes 13.6799
1216
root 34.0695 16.2736 -1.48463 928.863 95.2315 931.324
lowerback -2.67135 0.697233 -4.02006
upperback 0.681013 1.13898 -1.96453
thorax 2.16183 0.539973 0.285405
lowerneck -1.59432 7.06628 10.5856
upperneck 1.28335 9.2195 0.743251
head 1.14287 4.69717 -1.36458
rclavicle 5.56597e-015 -2.46493e-014
rhumerus -33.6098 -31.4273 -76.0915
rradius 14.0074
rwrist 24.2297
rhand -20.1871 35.791
rfingers 7.12502
rthumb 6.15919 5.90049
lclavicle 5.56597e-015 -2.46493e-014
lhumerus -23.9723 16.4268 78.5183
lradius 13.4167
lwrist -12.9069
lhand -12.2503 45.0337
lfingers 7.12502
lthumb 13.8158 74.5549
rfemur 1.70229 -0.313713 10.6201
rtibia 47.9411
rfoot 0.44861 13.5404
rtoes 21.2637
lfemur -11.5053 5.44726 -22.9896
ltibia 27.7774
lfoot -18.8845 -0.239728
ltoes 13.8276
1217
root 34.1398 16.2756 -1.50189 925.997 95.622 928.65
lowerback -2.53052 0.617146 -4.15584
upperback 0.944759 1.03866 -1.92134
thorax 2.35491 0.481926 0.400867
lowerneck -2.60887 7.08114 10.1699
upperneck 1.60757 9.111 1.03893
head 1.37889 4.65948 -1.16099
rclavicle -4.88265e-015 3.37934e-014
rhumerus -33.6178 -32.2367 -75.6339
rradius 13.8074
rwrist 25.2617
rhand -20.1793 35.3261
rfingers 7.12502
rthumb 6.16668 5.43588
lclavicle -4.88265e-015 3.37934e-014
lhumerus -22.6227 15.3655 79.0871
lradius 13.8991
lwrist -11.884
lhand -12.1154 45.1778
lfingers 7.12502
lthumb 13.9458 74.6901
rfemur 0.908539 -0.255816 10.4604
rtibia 49.6192
rfoot 1.36747 13.863
rtoes 9.85163
lfemur -10.8492 5.69465 -22.9498
ltibia 27.4856
lfoot -18.9982 0.0193404
ltoes 13.7998
1218
root 34.2092 16.2723 -1.52221 925.986 96.1593 928.733
lowerback -2.44892 0.670111 -4.44167
upperback 0.822304 1.11126 -1.96432
thorax 2.17619 0.519406 0.517309
lowerneck -2.03193 6.92361 10.0117
upperneck 1.3763 8.98292 1.04886
head 1.18921 4.58306 -1.16203
rclavicle -1.01753e-014 8.74653e-015
rhumerus -34.5292 -32.8321 -74.5961
rradius 13.6307
rwrist 25.8008
rhand -20.2366 35.213
rfingers 7.12502
rthumb 6.11139 5.32117
lclavicle -1.01753e-014 8.74653e-015
lhumerus -22.0206 13.9929 79.5894
lradius 14.3751
lwrist -10.9816
lhand -11.9879 45.4145
lfingers 7.12502
lthumb 14.0686 74.9184
rfemur -0.0354397 -0.308955 9.87376
rtibia 51.3004
rfoot 2.78653 14.1451
rtoes 17.0713
lfemur -10.2983 5.92487 -23.279
ltibia 27.1788
lfoot -19.0758 0.309519
ltoes 13.3138
1219
root 34.274 16.2687 -1.55013 927.319 96.8005 930.067
lowerback -2.534 0.632262 -4.87654
upperback 0.819259 1.08555 -2.04003
thorax 2.21657 0.501647 0.681984
lowerneck -1.66961 6.67981 10.2854
upperneck 1.19332 8.70214 0.467153
head 1.10117 4.42779 -1.41832
rclavicle -2.20651e-014 2.42517e-014
rhumerus -34.7879 -32.8637 -74.1078
rradius 13.3492
rwrist 25.8222
rhand -20.4053 35.2521
rfingers 7.12502
rthumb 5.94852 5.35564
lclavicle -2.20651e-014 2.42517e-014
lhumerus -21.3253 12.8715 80.0106
lradius 14.9577
lwrist -9.93713
lhand -12.1418 45.8053
lfingers 7.12502
lthumb 13.9204 75.3193
rfemur -1.16242 -0.467822 8.97755
rtibia 52.9641
rfoot 4.42176 14.417
rtoes 22.3101
lfemur -9.88669 6.26953 -23.8665
ltibia 26.9288
lfoot -19.248 0.506045
ltoes 12.6675
1220
root 34.3433 16.2713 -1.57145 926.334 97.0629 929.322
lowerback -2.50303 0.471781 -5.0299
upperback 1.01638 0.884217 -2.02011
thorax 2.40998 0.39262 0.77991
lowerneck -1.54435 6.66175 10.2441
upperneck 1.07006 8.69744 0.436909
head 1.0393 4.41967 -1.42799
rclavicle 6.98231e-015 1.47101e-014
rhumerus -34.9006 -33.4821 -73.5147
rradius 12.9555
rwrist 26.5073
rhand -20.533 35.3703
rfingers 7.12502
rthumb 5.82519 5.47038
lclavicle 6.98231e-015 1.47101e-014
lhumerus -20.355 12.148 80.1951
lradius 15.3343
lwrist -9.1059
lhand -12.1582 45.8951
lfingers 7.12502
lthumb 13.9046 75.4102
rfemur -1.94417 -0.599845 8.73924
rtibia 54.5733
rfoot 5.56139 14.3281
rtoes 24.3048
lfemur -9.19188 6.65666 -23.9236
ltibia 26.6728
lfoot -19.5575 0.469437
ltoes 11.9723
